<svg enable-background="new 0 0 80 80" viewBox="0 0 80 80" xmlns="http://www.w3.org/2000/svg"><g clip-rule="evenodd" fill-rule="evenodd"><path d="m0 0h79.9v79.9h-79.9z" fill="#fff"/><path d="m30.2 13-17.1 17.1v36.8h53.9v-53.9zm12.3 20.7c-2 0-4.3.4-5.9 1-.4.2-.7.4-1.1.6v-5.2h18.1v-7.5h-21.2l-6.2 6.1v14.6h9.1c.6-1 1.5-2.3 4.4-2.3 3.7 0 5.5 2.4 5.5 5.6 0 2.9-1.5 5.7-5.3 5.7-2.2 0-3.9-1-4.5-3.1-.1-.4-.2-.7-.2-1.2h-10.8c.6 2.6 1.2 5 3.4 7.4 4.1 4.2 10.1 4.2 12.1 4.2 3 0 8.7-.3 12.6-4.3 2.4-2.4 3.8-5.9 3.8-9.4 0-7.3-6-12.2-13.8-12.2" fill="#c03"/></g></svg>