<svg enable-background="new 0 0 17 20" viewBox="0 0 17 20" xmlns="http://www.w3.org/2000/svg"><path d="m16.4 4.8c-.4.2-.7.3-1.1.4.4-.4.8-.9.9-1.5.1-.1-.1-.3-.2-.2-.5.3-1.1.6-1.7.7h-.1c-.1 0-.2 0-.3-.1-.6-.6-1.5-.9-2.4-.9-.4 0-.8.1-1.1.2-1.2.4-2.1 1.3-2.4 2.5-.1.4-.1.9-.1 1.3v.1h-.1c-2.5-.2-4.8-1.4-6.4-3.4-.1-.1-.2-.1-.3 0-.3.6-.5 1.2-.5 1.8 0 1 .4 1.9 1.1 2.5-.3 0-.6-.1-.9-.2-.1-.1-.3 0-.3.2 0 1.4.8 2.7 2.1 3.3h-.1c-.2 0-.4 0-.6-.1-.1-.1-.2.1-.2.2.4 1.3 1.5 2.2 2.8 2.4-1.1.7-2.4 1.1-3.7 1.1h-.4c-.1 0-.2.1-.3.2 0 .1 0 .2.1.3 1.5.9 3.2 1.3 4.9 1.3 1.5 0 2.9-.3 4.2-.9 1.2-.5 2.2-1.3 3.1-2.3.8-.9 1.4-2 1.9-3.1s.7-2.3.7-3.4v-.1c0-.2.1-.4.2-.5.5-.4 1-1 1.4-1.6.2 0 0-.2-.2-.2z" fill="#fff"/></svg>