<svg enable-background="new 0 0 24.5 20" viewBox="0 0 24.5 20" xmlns="http://www.w3.org/2000/svg"><path d="m24.2 15.6c0-.1-.1-.1-.1-.2-.4-.8-1.2-1.7-2.4-2.8-.5-.5-.9-.9-1-1-.3-.3-.3-.7-.2-1s.5-.8 1.1-1.7c.3-.4.6-.8.8-1.1 1.5-1.9 2.1-3.2 1.9-3.7l-.1-.1c-.1-.1-.2-.1-.4-.2s-.5-.1-.8 0h-3.6c-.1 0-.1 0-.3 0-.1 0-.2 0-.2 0h-.1-.1l-.1.1c-.1.1-.1.1-.1.2-.4 1-.8 2-1.4 2.8-.3.5-.6 1-.9 1.4s-.5.7-.7.8c-.2.2-.3.3-.5.4-.1.1-.3.2-.3.1-.1 0-.1 0-.2-.1s-.2-.2-.3-.3-.1-.3-.1-.5 0-.4 0-.5 0-.3 0-.6 0-.4 0-.5c0-.3 0-.7 0-1 0-.4 0-.7 0-.9s0-.5 0-.7 0-.4 0-.6c0-.1-.1-.3-.1-.4.1.1 0 0-.1-.1s-.3-.1-.4-.2c-.4-.1-1-.2-1.7-.2-1.6 0-2.6.1-3 .3-.3.2-.4.3-.6.5-.1.2-.1.3 0 .3.5 0 .8.2 1.1.5l.1.2c.1.1.1.3.2.6v.9 1.6c0 .4-.1.8-.1 1s-.1.4-.2.6c0 .1-.1.2-.1.2s0 .1-.1.1-.2.1-.3.1-.3-.1-.4-.2c-.2-.1-.4-.3-.6-.5s-.4-.5-.6-.9c-.2-.3-.5-.8-.7-1.3l-.2-.3c-.1-.3-.3-.6-.5-1.1-.2-.4-.4-.9-.6-1.3-.1-.2-.2-.3-.3-.4h-.1s-.1-.1-.2-.1-.2-.1-.3-.1h-3.5c-.4 0-.6.1-.7.2v.1.2c0 .1 0 .2.1.3.5 1.2 1.1 2.3 1.6 3.4s1.1 2 1.5 2.7c.5.8.9 1.4 1.4 2s.8 1 .9 1.2.3.3.3.4l.3.3c.2.2.5.4.9.7s.8.6 1.3.8c.5.3 1 .5 1.7.7.6.2 1.2.2 1.8.2h1.5c.3 0 .5-.1.7-.3l.1-.1c0-.1.1-.1.1-.2s0-.2 0-.3c0-.4 0-.7.1-1s.1-.5.2-.7c.1-.1.2-.3.3-.4s.2-.2.2-.2h.1c.2-.1.4 0 .7.2s.5.4.8.7c.2.3.5.6.9 1 .3.4.6.6.9.8l.3.2c.2.1.4.2.7.3s.5.1.7.1l3.2-.1c.3 0 .6-.1.7-.2.2-.1.3-.2.3-.3s0-.3 0-.4c-.1-.2-.2-.3-.2-.4z" fill="#fff"/></svg>