<svg enable-background="new 0 0 80 80" viewBox="0 0 80 80" xmlns="http://www.w3.org/2000/svg"><g fill="#fff"><path d="m68.4 34.5c-2.6 0-4.7 1.7-5.5 4h10.9c-.7-2.3-2.9-4-5.4-4z"/><path d="m40 .2c-22 0-39.8 17.8-39.8 39.8s17.8 39.8 39.8 39.8 39.8-17.8 39.8-39.8-17.8-39.8-39.8-39.8zm-11.2 47.7h-2.4v-8.9c0-2.5-2-4.5-4.6-4.5-2.5 0-4.5 2-4.6 4.5v8.8h-2.2v-8.8c0-2.5-2-4.6-4.6-4.6-2.5 0-4.5 2-4.6 4.5v8.8h-2.3v-8.8c0-3.8 3.1-6.9 6.9-6.9 2.4 0 4.5 1.2 5.7 3.1 1.2-1.8 3.4-3.1 5.7-3.1 3.8 0 6.9 3.1 6.9 6.9v9zm11.2.4c-4.5 0-8.1-3.6-8.1-8.1s3.6-8.1 8.1-8.1 8.1 3.6 8.1 8.1-3.6 8.1-8.1 8.1zm18.2-13.8h-.1c-2.5 0-4.5 2-4.5 4.5v8.8h-2.4v-8.8c0-3.8 3.1-6.8 6.9-6.9h.2v2.4zm10.2 11.5c2.2 0 4.2-1.3 5.1-3.2l2.1 1.1c-1.3 2.6-4.1 4.4-7.2 4.4-4.5 0-8.1-3.6-8.1-8.1s3.6-8.1 8.1-8.1 8.1 3.6 8.1 8.1v.5h-3.9-9.9c.2 3 2.7 5.3 5.7 5.3z"/></g></svg>